<svg width="148" height="148" viewBox="0 0 148 148" fill="none" xmlns="http://www.w3.org/2000/svg">
<g filter="url(#filter0_d_615_9)">
<circle cx="74" cy="59" r="30" fill="#FBFBFB"/>
</g>
<path d="M66.5 60.375C68.1547 60.375 69.5 58.9176 69.5 57.125C69.5 55.3324 68.1547 53.875 66.5 53.875C64.8453 53.875 63.5 55.3324 63.5 57.125C63.5 58.9176 64.8453 60.375 66.5 60.375ZM87.5 60.375C89.1547 60.375 90.5 58.9176 90.5 57.125C90.5 55.3324 89.1547 53.875 87.5 53.875C85.8453 53.875 84.5 55.3324 84.5 57.125C84.5 58.9176 85.8453 60.375 87.5 60.375ZM89 62H86C85.175 62 84.4297 62.3605 83.8859 62.9445C85.775 64.0668 87.1156 66.093 87.4062 68.5H90.5C91.3297 68.5 92 67.7738 92 66.875V65.25C92 63.4574 90.6547 62 89 62ZM77 62C79.9016 62 82.25 59.4559 82.25 56.3125C82.25 53.1691 79.9016 50.625 77 50.625C74.0984 50.625 71.75 53.1691 71.75 56.3125C71.75 59.4559 74.0984 62 77 62ZM80.6 63.625H80.2109C79.2359 64.1328 78.1531 64.4375 77 64.4375C75.8469 64.4375 74.7688 64.1328 73.7891 63.625H73.4C70.4187 63.625 68 66.2453 68 69.475V70.9375C68 72.2832 69.0078 73.375 70.25 73.375H83.75C84.9922 73.375 86 72.2832 86 70.9375V69.475C86 66.2453 83.5812 63.625 80.6 63.625ZM70.1141 62.9445C69.5703 62.3605 68.825 62 68 62H65C63.3453 62 62 63.4574 62 65.25V66.875C62 67.7738 62.6703 68.5 63.5 68.5H66.5891C66.8844 66.093 68.225 64.0668 70.1141 62.9445Z" fill="#2F327D"/>
<defs>
<filter id="filter0_d_615_9" x="0" y="0" width="148" height="148" filterUnits="userSpaceOnUse" color-interpolation-filters="sRGB">
<feFlood flood-opacity="0" result="BackgroundImageFix"/>
<feColorMatrix in="SourceAlpha" type="matrix" values="0 0 0 0 0 0 0 0 0 0 0 0 0 0 0 0 0 0 127 0" result="hardAlpha"/>
<feOffset dy="15"/>
<feGaussianBlur stdDeviation="22"/>
<feColorMatrix type="matrix" values="0 0 0 0 0.0509804 0 0 0 0 0.0588235 0 0 0 0 0.109804 0 0 0 0.12 0"/>
<feBlend mode="normal" in2="BackgroundImageFix" result="effect1_dropShadow_615_9"/>
<feBlend mode="normal" in="SourceGraphic" in2="effect1_dropShadow_615_9" result="shape"/>
</filter>
</defs>
</svg>
